<svg xmlns="http://www.w3.org/2000/svg" width="26.103" height="35.807" viewBox="0 0 26.103 35.807">
  <g id="Grupo_2708" data-name="Grupo 2708" transform="translate(835.149 409.136)">
    <path id="Subtração_2" data-name="Subtração 2" d="M-1930.1-1832.328a1.246,1.246,0,0,1-1.027-.642c-.519-.8-1.038-1.613-1.541-2.4q-.4-.622-.795-1.243-1.046-1.632-2.094-3.263l-.077-.119-.044-.068c-1.654-2.576-3.364-5.24-5.033-7.866a12.315,12.315,0,0,1-1.933-6.953,12.39,12.39,0,0,1,4.52-9.348,12.157,12.157,0,0,1,6.188-2.764,13.214,13.214,0,0,1,1.9-.141,12.3,12.3,0,0,1,5.716,1.417,12.324,12.324,0,0,1,5.326,5.3,12.371,12.371,0,0,1,1.3,7.766,11.884,11.884,0,0,1-1.731,4.659c-2.257,3.528-4.545,7.091-6.757,10.537l-2.773,4.321-.031.05-.005.009-.065.1A1.276,1.276,0,0,1-1930.1-1832.328Zm.006-27.968h-.008a5.669,5.669,0,0,0-4.028,1.684,5.66,5.66,0,0,0-1.671,4.03,5.714,5.714,0,0,0,5.7,5.7h.01a5.669,5.669,0,0,0,4.028-1.684,5.66,5.66,0,0,0,1.671-4.031,5.716,5.716,0,0,0-5.7-5.7Z" transform="translate(1108 1458.5)" fill="#305f3c" stroke="rgba(0,0,0,0)" stroke-width="1"/>
  </g>
</svg>
